<mxfile host="app.diagrams.net" agent="Mozilla/5.0 (Windows NT 10.0; Win64; x64) AppleWebKit/537.36 (KHTML, like Gecko) Chrome/140.0.0.0 Safari/537.36" version="28.2.5">
  <diagram name="Pagina-1" id="lWAFKvJ2XntB-eTbs47i">
    <mxGraphModel dx="4168" dy="3417" grid="1" gridSize="10" guides="1" tooltips="1" connect="1" arrows="1" fold="1" page="1" pageScale="1" pageWidth="827" pageHeight="1169" math="0" shadow="0">
      <root>
        <mxCell id="0" />
        <mxCell id="1" parent="0" />
        <mxCell id="2v0B1rhACqtFcKGSNcDr-1" value="Client" style="shape=umlActor;verticalLabelPosition=bottom;verticalAlign=top;html=1;" vertex="1" parent="1">
          <mxGeometry x="120" y="30" width="30" height="60" as="geometry" />
        </mxCell>
        <mxCell id="2v0B1rhACqtFcKGSNcDr-2" value="&lt;font style=&quot;font-size: 12px;&quot;&gt;1 http request: aggiungiUnaControproposta(int idProposta, Double prezzoControproposta)&amp;nbsp;&lt;/font&gt;" style="html=1;verticalAlign=bottom;startArrow=oval;startFill=1;endArrow=block;startSize=8;curved=0;rounded=0;strokeWidth=1;jumpSize=14;" edge="1" parent="1">
          <mxGeometry x="-0.0459" width="60" relative="1" as="geometry">
            <mxPoint x="160" y="80" as="sourcePoint" />
            <mxPoint x="705" y="80" as="targetPoint" />
            <mxPoint as="offset" />
          </mxGeometry>
        </mxCell>
        <mxCell id="2v0B1rhACqtFcKGSNcDr-3" value="PropostaController" style="shape=umlLifeline;perimeter=lifelinePerimeter;whiteSpace=wrap;html=1;container=1;dropTarget=0;collapsible=0;recursiveResize=0;outlineConnect=0;portConstraint=eastwest;newEdgeStyle={&quot;curved&quot;:0,&quot;rounded&quot;:0};" vertex="1" parent="1">
          <mxGeometry x="660" y="-20" width="100" height="2820" as="geometry" />
        </mxCell>
        <mxCell id="2v0B1rhACqtFcKGSNcDr-4" value="" style="html=1;points=[[0,0,0,0,5],[0,1,0,0,-5],[1,0,0,0,5],[1,1,0,0,-5]];perimeter=orthogonalPerimeter;outlineConnect=0;targetShapes=umlLifeline;portConstraint=eastwest;newEdgeStyle={&quot;curved&quot;:0,&quot;rounded&quot;:0};" vertex="1" parent="2v0B1rhACqtFcKGSNcDr-3">
          <mxGeometry x="45" y="60" width="10" height="2730" as="geometry" />
        </mxCell>
        <mxCell id="2v0B1rhACqtFcKGSNcDr-5" value="PropostaService" style="shape=umlLifeline;perimeter=lifelinePerimeter;whiteSpace=wrap;html=1;container=1;dropTarget=0;collapsible=0;recursiveResize=0;outlineConnect=0;portConstraint=eastwest;newEdgeStyle={&quot;curved&quot;:0,&quot;rounded&quot;:0};" vertex="1" parent="1">
          <mxGeometry x="1141" y="-20" width="100" height="2740" as="geometry" />
        </mxCell>
        <mxCell id="2v0B1rhACqtFcKGSNcDr-6" value="" style="html=1;points=[[0,0,0,0,5],[0,1,0,0,-5],[1,0,0,0,5],[1,1,0,0,-5]];perimeter=orthogonalPerimeter;outlineConnect=0;targetShapes=umlLifeline;portConstraint=eastwest;newEdgeStyle={&quot;curved&quot;:0,&quot;rounded&quot;:0};" vertex="1" parent="2v0B1rhACqtFcKGSNcDr-5">
          <mxGeometry x="45" y="60" width="10" height="2640" as="geometry" />
        </mxCell>
        <mxCell id="2v0B1rhACqtFcKGSNcDr-7" value="2: aggiungiUnaControproposta(idProposta, prezzoControproposta)" style="html=1;verticalAlign=bottom;endArrow=block;curved=0;rounded=0;" edge="1" parent="1" target="2v0B1rhACqtFcKGSNcDr-5">
          <mxGeometry width="80" relative="1" as="geometry">
            <mxPoint x="710" y="120" as="sourcePoint" />
            <mxPoint x="790" y="120" as="targetPoint" />
          </mxGeometry>
        </mxCell>
        <mxCell id="2v0B1rhACqtFcKGSNcDr-8" value="PropostaRepository" style="shape=umlLifeline;perimeter=lifelinePerimeter;whiteSpace=wrap;html=1;container=1;dropTarget=0;collapsible=0;recursiveResize=0;outlineConnect=0;portConstraint=eastwest;newEdgeStyle={&quot;curved&quot;:0,&quot;rounded&quot;:0};" vertex="1" parent="1">
          <mxGeometry x="1750" y="-20" width="110" height="2740" as="geometry" />
        </mxCell>
        <mxCell id="2v0B1rhACqtFcKGSNcDr-9" value="" style="html=1;points=[[0,0,0,0,5],[0,1,0,0,-5],[1,0,0,0,5],[1,1,0,0,-5]];perimeter=orthogonalPerimeter;outlineConnect=0;targetShapes=umlLifeline;portConstraint=eastwest;newEdgeStyle={&quot;curved&quot;:0,&quot;rounded&quot;:0};" vertex="1" parent="2v0B1rhACqtFcKGSNcDr-8">
          <mxGeometry x="50" y="50" width="10" height="2620" as="geometry" />
        </mxCell>
        <mxCell id="2v0B1rhACqtFcKGSNcDr-10" value="3: findById(idProposta)" style="html=1;verticalAlign=bottom;endArrow=block;curved=0;rounded=0;" edge="1" parent="1" target="2v0B1rhACqtFcKGSNcDr-8">
          <mxGeometry x="-0.5342" width="80" relative="1" as="geometry">
            <mxPoint x="1200" y="160" as="sourcePoint" />
            <mxPoint x="1543.5" y="160" as="targetPoint" />
            <mxPoint as="offset" />
          </mxGeometry>
        </mxCell>
        <mxCell id="2v0B1rhACqtFcKGSNcDr-11" value="4: return Proposta" style="html=1;verticalAlign=bottom;endArrow=open;dashed=1;endSize=8;curved=0;rounded=0;" edge="1" parent="1" source="2v0B1rhACqtFcKGSNcDr-8">
          <mxGeometry x="-0.8225" relative="1" as="geometry">
            <mxPoint x="1610" y="200" as="sourcePoint" />
            <mxPoint x="1190.5" y="200" as="targetPoint" />
            <mxPoint as="offset" />
          </mxGeometry>
        </mxCell>
        <mxCell id="2v0B1rhACqtFcKGSNcDr-15" value="&lt;b&gt;alt&lt;/b&gt;" style="shape=umlFrame;whiteSpace=wrap;html=1;pointerEvents=0;" vertex="1" parent="1">
          <mxGeometry x="1070.5" y="250" width="649.5" height="550" as="geometry" />
        </mxCell>
        <mxCell id="2v0B1rhACqtFcKGSNcDr-16" value="" style="endArrow=none;dashed=1;html=1;dashPattern=1 3;strokeWidth=2;rounded=0;exitX=0.01;exitY=0.951;exitDx=0;exitDy=0;exitPerimeter=0;" edge="1" parent="1">
          <mxGeometry width="50" height="50" relative="1" as="geometry">
            <mxPoint x="1074.985" y="539.9999999999997" as="sourcePoint" />
            <mxPoint x="1720" y="540" as="targetPoint" />
          </mxGeometry>
        </mxCell>
        <mxCell id="2v0B1rhACqtFcKGSNcDr-17" value="[proposta != null]" style="text;align=center;fontStyle=1;verticalAlign=middle;spacingLeft=3;spacingRight=3;strokeColor=none;rotatable=0;points=[[0,0.5],[1,0.5]];portConstraint=eastwest;html=1;" vertex="1" parent="1">
          <mxGeometry x="1205" y="260" width="110" height="20" as="geometry" />
        </mxCell>
        <mxCell id="2v0B1rhACqtFcKGSNcDr-18" value="UserContex" style="shape=umlLifeline;perimeter=lifelinePerimeter;whiteSpace=wrap;html=1;container=1;dropTarget=0;collapsible=0;recursiveResize=0;outlineConnect=0;portConstraint=eastwest;newEdgeStyle={&quot;curved&quot;:0,&quot;rounded&quot;:0};" vertex="1" parent="1">
          <mxGeometry x="2020" y="-20" width="110" height="2710" as="geometry" />
        </mxCell>
        <mxCell id="2v0B1rhACqtFcKGSNcDr-19" value="" style="html=1;points=[[0,0,0,0,5],[0,1,0,0,-5],[1,0,0,0,5],[1,1,0,0,-5]];perimeter=orthogonalPerimeter;outlineConnect=0;targetShapes=umlLifeline;portConstraint=eastwest;newEdgeStyle={&quot;curved&quot;:0,&quot;rounded&quot;:0};" vertex="1" parent="2v0B1rhACqtFcKGSNcDr-18">
          <mxGeometry x="50" y="50" width="10" height="2600" as="geometry" />
        </mxCell>
        <mxCell id="2v0B1rhACqtFcKGSNcDr-20" value="5: getUserCurrent()" style="html=1;verticalAlign=bottom;endArrow=block;curved=0;rounded=0;" edge="1" parent="1" target="2v0B1rhACqtFcKGSNcDr-18">
          <mxGeometry x="-0.7506" width="80" relative="1" as="geometry">
            <mxPoint x="1201" y="350" as="sourcePoint" />
            <mxPoint x="1281" y="350" as="targetPoint" />
            <mxPoint as="offset" />
          </mxGeometry>
        </mxCell>
        <mxCell id="2v0B1rhACqtFcKGSNcDr-21" value="6: User user: retrieveUserFromSecurityContex()" style="html=1;verticalAlign=bottom;endArrow=block;curved=0;rounded=0;" edge="1" parent="1">
          <mxGeometry x="0.0612" y="95" width="80" relative="1" as="geometry">
            <mxPoint x="2075" y="370" as="sourcePoint" />
            <mxPoint x="2070" y="450" as="targetPoint" />
            <Array as="points">
              <mxPoint x="2155" y="370" />
              <mxPoint x="2155" y="450" />
            </Array>
            <mxPoint as="offset" />
          </mxGeometry>
        </mxCell>
        <mxCell id="2v0B1rhACqtFcKGSNcDr-22" value="7: return User" style="html=1;verticalAlign=bottom;endArrow=open;dashed=1;endSize=8;curved=0;rounded=0;" edge="1" parent="1">
          <mxGeometry x="-0.8896" relative="1" as="geometry">
            <mxPoint x="2068.5" y="490" as="sourcePoint" />
            <mxPoint x="1190" y="490" as="targetPoint" />
            <mxPoint as="offset" />
          </mxGeometry>
        </mxCell>
        <mxCell id="2v0B1rhACqtFcKGSNcDr-23" value="&lt;b&gt;opt&lt;/b&gt;" style="shape=umlFrame;whiteSpace=wrap;html=1;pointerEvents=0;" vertex="1" parent="1">
          <mxGeometry x="1050" y="1510" width="650" height="250" as="geometry" />
        </mxCell>
        <mxCell id="2v0B1rhACqtFcKGSNcDr-24" value="[user.id != proposta.annuncio.agente.id]" style="text;align=center;fontStyle=1;verticalAlign=middle;spacingLeft=3;spacingRight=3;strokeColor=none;rotatable=0;points=[[0,0.5],[1,0.5]];portConstraint=eastwest;html=1;" vertex="1" parent="1">
          <mxGeometry x="1205" y="860" width="280" height="30" as="geometry" />
        </mxCell>
        <mxCell id="2v0B1rhACqtFcKGSNcDr-25" value="&lt;b&gt;opt&lt;/b&gt;" style="shape=umlFrame;whiteSpace=wrap;html=1;pointerEvents=0;" vertex="1" parent="1">
          <mxGeometry x="1060" y="845" width="649.5" height="210" as="geometry" />
        </mxCell>
        <mxCell id="2v0B1rhACqtFcKGSNcDr-28" value="[proposta.controproposta != null]" style="text;align=center;fontStyle=1;verticalAlign=middle;spacingLeft=3;spacingRight=3;strokeColor=none;rotatable=0;points=[[0,0.5],[1,0.5]];portConstraint=eastwest;html=1;" vertex="1" parent="1">
          <mxGeometry x="1205" y="1130" width="240" height="20" as="geometry" />
        </mxCell>
        <mxCell id="2v0B1rhACqtFcKGSNcDr-29" value="&lt;b&gt;opt&lt;/b&gt;" style="shape=umlFrame;whiteSpace=wrap;html=1;pointerEvents=0;" vertex="1" parent="1">
          <mxGeometry x="1060" y="1120" width="649.5" height="320" as="geometry" />
        </mxCell>
        <mxCell id="2v0B1rhACqtFcKGSNcDr-31" value="[controproposta &amp;lt; proposta.PrezzoProposta]" style="text;align=center;fontStyle=1;verticalAlign=middle;spacingLeft=3;spacingRight=3;strokeColor=none;rotatable=0;points=[[0,0.5],[1,0.5]];portConstraint=eastwest;html=1;" vertex="1" parent="1">
          <mxGeometry x="1205" y="1510" width="260" height="30" as="geometry" />
        </mxCell>
        <mxCell id="2v0B1rhACqtFcKGSNcDr-32" value="&lt;b&gt;opt&lt;/b&gt;" style="shape=umlFrame;whiteSpace=wrap;html=1;pointerEvents=0;" vertex="1" parent="1">
          <mxGeometry x="1040" y="1840" width="650" height="280" as="geometry" />
        </mxCell>
        <mxCell id="2v0B1rhACqtFcKGSNcDr-35" value="[proposta.stato != &quot;IN_TRATTATIVA&quot;]" style="text;align=center;fontStyle=1;verticalAlign=middle;spacingLeft=3;spacingRight=3;strokeColor=none;rotatable=0;points=[[0,0.5],[1,0.5]];portConstraint=eastwest;html=1;" vertex="1" parent="1">
          <mxGeometry x="1205" y="1850" width="260" height="20" as="geometry" />
        </mxCell>
        <mxCell id="2v0B1rhACqtFcKGSNcDr-36" value="ResourceNotFoundException" style="shape=umlLifeline;perimeter=lifelinePerimeter;whiteSpace=wrap;html=1;container=1;dropTarget=0;collapsible=0;recursiveResize=0;outlineConnect=0;portConstraint=eastwest;newEdgeStyle={&quot;curved&quot;:0,&quot;rounded&quot;:0};" vertex="1" parent="1">
          <mxGeometry x="2370" y="570" width="190" height="230" as="geometry" />
        </mxCell>
        <mxCell id="2v0B1rhACqtFcKGSNcDr-38" value="" style="html=1;points=[[0,0,0,0,5],[0,1,0,0,-5],[1,0,0,0,5],[1,1,0,0,-5]];perimeter=orthogonalPerimeter;outlineConnect=0;targetShapes=umlLifeline;portConstraint=eastwest;newEdgeStyle={&quot;curved&quot;:0,&quot;rounded&quot;:0};" vertex="1" parent="2v0B1rhACqtFcKGSNcDr-36">
          <mxGeometry x="90" y="50" width="10" height="100" as="geometry" />
        </mxCell>
        <mxCell id="2v0B1rhACqtFcKGSNcDr-37" value="5.1.1: &amp;lt;&amp;lt;throw&amp;gt;&amp;gt;" style="html=1;verticalAlign=bottom;endArrow=block;curved=0;rounded=0;" edge="1" parent="1">
          <mxGeometry x="-0.8632" width="80" relative="1" as="geometry">
            <mxPoint x="1200" y="590" as="sourcePoint" />
            <mxPoint x="2370" y="590" as="targetPoint" />
            <mxPoint as="offset" />
          </mxGeometry>
        </mxCell>
        <mxCell id="2v0B1rhACqtFcKGSNcDr-39" value="5.1.2 http error: &quot;Proposta non trovata&quot;" style="html=1;verticalAlign=bottom;endArrow=open;dashed=1;endSize=8;curved=0;rounded=0;" edge="1" parent="1" target="2v0B1rhACqtFcKGSNcDr-6">
          <mxGeometry x="-0.8418" relative="1" as="geometry">
            <mxPoint x="2460" y="640" as="sourcePoint" />
            <mxPoint x="2326.842105263158" y="640" as="targetPoint" />
            <mxPoint as="offset" />
          </mxGeometry>
        </mxCell>
        <mxCell id="2v0B1rhACqtFcKGSNcDr-40" value="5.1.3 http error: &quot;Proposta non trovata&quot;" style="html=1;verticalAlign=bottom;endArrow=open;dashed=1;endSize=8;curved=0;rounded=0;" edge="1" parent="1" target="2v0B1rhACqtFcKGSNcDr-3">
          <mxGeometry x="-0.0007" relative="1" as="geometry">
            <mxPoint x="1190" y="684.5" as="sourcePoint" />
            <mxPoint x="1110" y="684.5" as="targetPoint" />
            <mxPoint as="offset" />
          </mxGeometry>
        </mxCell>
        <mxCell id="2v0B1rhACqtFcKGSNcDr-41" value="" style="endArrow=none;dashed=1;html=1;dashPattern=1 3;strokeWidth=2;rounded=0;" edge="1" parent="1">
          <mxGeometry width="50" height="50" relative="1" as="geometry">
            <mxPoint x="120" y="2760" as="sourcePoint" />
            <mxPoint x="140" y="110" as="targetPoint" />
          </mxGeometry>
        </mxCell>
        <mxCell id="2v0B1rhACqtFcKGSNcDr-42" value="5.1.4 http error: &quot;Proposta non trovata&quot;" style="html=1;verticalAlign=bottom;endArrow=open;dashed=1;endSize=8;curved=0;rounded=0;" edge="1" parent="1">
          <mxGeometry relative="1" as="geometry">
            <mxPoint x="710" y="720" as="sourcePoint" />
            <mxPoint x="130" y="721" as="targetPoint" />
          </mxGeometry>
        </mxCell>
        <mxCell id="2v0B1rhACqtFcKGSNcDr-43" value="BadRequestException" style="shape=umlLifeline;perimeter=lifelinePerimeter;whiteSpace=wrap;html=1;container=1;dropTarget=0;collapsible=0;recursiveResize=0;outlineConnect=0;portConstraint=eastwest;newEdgeStyle={&quot;curved&quot;:0,&quot;rounded&quot;:0};" vertex="1" parent="1">
          <mxGeometry x="2370" y="890" width="190" height="230" as="geometry" />
        </mxCell>
        <mxCell id="2v0B1rhACqtFcKGSNcDr-44" value="" style="html=1;points=[[0,0,0,0,5],[0,1,0,0,-5],[1,0,0,0,5],[1,1,0,0,-5]];perimeter=orthogonalPerimeter;outlineConnect=0;targetShapes=umlLifeline;portConstraint=eastwest;newEdgeStyle={&quot;curved&quot;:0,&quot;rounded&quot;:0};" vertex="1" parent="2v0B1rhACqtFcKGSNcDr-43">
          <mxGeometry x="90" y="50" width="10" height="100" as="geometry" />
        </mxCell>
        <mxCell id="2v0B1rhACqtFcKGSNcDr-45" value="5.2.1: &amp;lt;&amp;lt;throw&amp;gt;&amp;gt;" style="html=1;verticalAlign=bottom;endArrow=block;curved=0;rounded=0;" edge="1" parent="1">
          <mxGeometry x="-0.9145" width="80" relative="1" as="geometry">
            <mxPoint x="1200" y="910" as="sourcePoint" />
            <mxPoint x="2370" y="910" as="targetPoint" />
            <mxPoint as="offset" />
          </mxGeometry>
        </mxCell>
        <mxCell id="2v0B1rhACqtFcKGSNcDr-47" value="5.2.2 http error: &quot;Non sei autorizzato a fare una controproposta su questa proposta&quot;" style="html=1;verticalAlign=bottom;endArrow=open;dashed=1;endSize=8;curved=0;rounded=0;" edge="1" parent="1">
          <mxGeometry x="-0.662" relative="1" as="geometry">
            <mxPoint x="2464" y="970" as="sourcePoint" />
            <mxPoint x="1200" y="970" as="targetPoint" />
            <mxPoint as="offset" />
          </mxGeometry>
        </mxCell>
        <mxCell id="2v0B1rhACqtFcKGSNcDr-48" value="5.2.3 http error: &quot;Non sei autorizzato a fare una controproposta su questa proposta&quot;" style="html=1;verticalAlign=bottom;endArrow=open;dashed=1;endSize=8;curved=0;rounded=0;" edge="1" parent="1">
          <mxGeometry x="-0.125" relative="1" as="geometry">
            <mxPoint x="1190" y="1000" as="sourcePoint" />
            <mxPoint x="710" y="1000.5" as="targetPoint" />
            <mxPoint as="offset" />
          </mxGeometry>
        </mxCell>
        <mxCell id="2v0B1rhACqtFcKGSNcDr-49" value="5.2.4 http error: &quot;Non sei autorizzato a fare una controproposta su questa proposta&quot;" style="html=1;verticalAlign=bottom;endArrow=open;dashed=1;endSize=8;curved=0;rounded=0;" edge="1" parent="1">
          <mxGeometry x="-0.231" relative="1" as="geometry">
            <mxPoint x="703" y="1040" as="sourcePoint" />
            <mxPoint x="123" y="1041" as="targetPoint" />
            <mxPoint as="offset" />
          </mxGeometry>
        </mxCell>
        <mxCell id="2v0B1rhACqtFcKGSNcDr-50" value="BadRequestException" style="shape=umlLifeline;perimeter=lifelinePerimeter;whiteSpace=wrap;html=1;container=1;dropTarget=0;collapsible=0;recursiveResize=0;outlineConnect=0;portConstraint=eastwest;newEdgeStyle={&quot;curved&quot;:0,&quot;rounded&quot;:0};" vertex="1" parent="1">
          <mxGeometry x="2360" y="1250" width="190" height="230" as="geometry" />
        </mxCell>
        <mxCell id="2v0B1rhACqtFcKGSNcDr-51" value="" style="html=1;points=[[0,0,0,0,5],[0,1,0,0,-5],[1,0,0,0,5],[1,1,0,0,-5]];perimeter=orthogonalPerimeter;outlineConnect=0;targetShapes=umlLifeline;portConstraint=eastwest;newEdgeStyle={&quot;curved&quot;:0,&quot;rounded&quot;:0};" vertex="1" parent="2v0B1rhACqtFcKGSNcDr-50">
          <mxGeometry x="90" y="50" width="10" height="100" as="geometry" />
        </mxCell>
        <mxCell id="2v0B1rhACqtFcKGSNcDr-52" value="5.3.1: &amp;lt;&amp;lt;throw&amp;gt;&amp;gt;" style="html=1;verticalAlign=bottom;endArrow=block;curved=0;rounded=0;" edge="1" parent="1">
          <mxGeometry x="-0.9145" width="80" relative="1" as="geometry">
            <mxPoint x="1200" y="1280" as="sourcePoint" />
            <mxPoint x="2360" y="1280" as="targetPoint" />
            <mxPoint as="offset" />
          </mxGeometry>
        </mxCell>
        <mxCell id="2v0B1rhACqtFcKGSNcDr-53" value="5.3.2 http error: &quot;La proposta ha già una controproposta&quot;" style="html=1;verticalAlign=bottom;endArrow=open;dashed=1;endSize=8;curved=0;rounded=0;" edge="1" parent="1" source="2v0B1rhACqtFcKGSNcDr-51">
          <mxGeometry x="-0.7563" relative="1" as="geometry">
            <mxPoint x="2370" y="1320" as="sourcePoint" />
            <mxPoint x="1200" y="1320" as="targetPoint" />
            <mxPoint as="offset" />
          </mxGeometry>
        </mxCell>
        <mxCell id="2v0B1rhACqtFcKGSNcDr-54" value="5.3.3 http error: &quot;La proposta ha già una controproposta&quot;" style="html=1;verticalAlign=bottom;endArrow=open;dashed=1;endSize=8;curved=0;rounded=0;" edge="1" parent="1">
          <mxGeometry x="-0.375" relative="1" as="geometry">
            <mxPoint x="1190" y="1360" as="sourcePoint" />
            <mxPoint x="710" y="1360.5" as="targetPoint" />
            <mxPoint as="offset" />
          </mxGeometry>
        </mxCell>
        <mxCell id="2v0B1rhACqtFcKGSNcDr-55" value="5.3.4 http error: &quot;La proposta ha già una controproposta&quot;" style="html=1;verticalAlign=bottom;endArrow=open;dashed=1;endSize=8;curved=0;rounded=0;" edge="1" parent="1">
          <mxGeometry x="-0.5069" y="1" relative="1" as="geometry">
            <mxPoint x="703" y="1390" as="sourcePoint" />
            <mxPoint x="123" y="1391" as="targetPoint" />
            <mxPoint as="offset" />
          </mxGeometry>
        </mxCell>
        <mxCell id="2v0B1rhACqtFcKGSNcDr-56" value="BadRequestException" style="shape=umlLifeline;perimeter=lifelinePerimeter;whiteSpace=wrap;html=1;container=1;dropTarget=0;collapsible=0;recursiveResize=0;outlineConnect=0;portConstraint=eastwest;newEdgeStyle={&quot;curved&quot;:0,&quot;rounded&quot;:0};" vertex="1" parent="1">
          <mxGeometry x="2370" y="1580" width="190" height="230" as="geometry" />
        </mxCell>
        <mxCell id="2v0B1rhACqtFcKGSNcDr-57" value="" style="html=1;points=[[0,0,0,0,5],[0,1,0,0,-5],[1,0,0,0,5],[1,1,0,0,-5]];perimeter=orthogonalPerimeter;outlineConnect=0;targetShapes=umlLifeline;portConstraint=eastwest;newEdgeStyle={&quot;curved&quot;:0,&quot;rounded&quot;:0};" vertex="1" parent="2v0B1rhACqtFcKGSNcDr-56">
          <mxGeometry x="90" y="50" width="10" height="100" as="geometry" />
        </mxCell>
        <mxCell id="2v0B1rhACqtFcKGSNcDr-58" value="5.4.1: &amp;lt;&amp;lt;throw&amp;gt;&amp;gt;" style="html=1;verticalAlign=bottom;endArrow=block;curved=0;rounded=0;" edge="1" parent="1" source="2v0B1rhACqtFcKGSNcDr-6">
          <mxGeometry x="-0.9145" width="80" relative="1" as="geometry">
            <mxPoint x="1210" y="1590" as="sourcePoint" />
            <mxPoint x="2370" y="1590" as="targetPoint" />
            <mxPoint as="offset" />
          </mxGeometry>
        </mxCell>
        <mxCell id="2v0B1rhACqtFcKGSNcDr-59" value="5.4.2 http error: &quot;Non puoi proporre una controproposta minore del proponente&quot;" style="html=1;verticalAlign=bottom;endArrow=open;dashed=1;endSize=8;curved=0;rounded=0;entryX=1.4;entryY=0.619;entryDx=0;entryDy=0;entryPerimeter=0;" edge="1" parent="1" target="2v0B1rhACqtFcKGSNcDr-6">
          <mxGeometry x="-0.6825" relative="1" as="geometry">
            <mxPoint x="2460" y="1650" as="sourcePoint" />
            <mxPoint x="1210" y="1650" as="targetPoint" />
            <mxPoint as="offset" />
          </mxGeometry>
        </mxCell>
        <mxCell id="2v0B1rhACqtFcKGSNcDr-60" value="5.4.3 http error: &quot;Non puoi proporre una controproposta minore del proponente&quot;" style="html=1;verticalAlign=bottom;endArrow=open;dashed=1;endSize=8;curved=0;rounded=0;" edge="1" parent="1">
          <mxGeometry x="-0.125" relative="1" as="geometry">
            <mxPoint x="1190" y="1680" as="sourcePoint" />
            <mxPoint x="710" y="1680.5" as="targetPoint" />
            <mxPoint as="offset" />
          </mxGeometry>
        </mxCell>
        <mxCell id="2v0B1rhACqtFcKGSNcDr-61" value="5.4.4 http error: &quot;Non puoi proporre una controproposta minore del proponente&quot;" style="html=1;verticalAlign=bottom;endArrow=open;dashed=1;endSize=8;curved=0;rounded=0;" edge="1" parent="1">
          <mxGeometry x="-0.2621" relative="1" as="geometry">
            <mxPoint x="704" y="1790" as="sourcePoint" />
            <mxPoint x="124" y="1791" as="targetPoint" />
            <mxPoint as="offset" />
          </mxGeometry>
        </mxCell>
        <mxCell id="2v0B1rhACqtFcKGSNcDr-62" value="BadRequestException" style="shape=umlLifeline;perimeter=lifelinePerimeter;whiteSpace=wrap;html=1;container=1;dropTarget=0;collapsible=0;recursiveResize=0;outlineConnect=0;portConstraint=eastwest;newEdgeStyle={&quot;curved&quot;:0,&quot;rounded&quot;:0};" vertex="1" parent="1">
          <mxGeometry x="5140" y="5690" width="190" height="230" as="geometry" />
        </mxCell>
        <mxCell id="2v0B1rhACqtFcKGSNcDr-63" value="" style="html=1;points=[[0,0,0,0,5],[0,1,0,0,-5],[1,0,0,0,5],[1,1,0,0,-5]];perimeter=orthogonalPerimeter;outlineConnect=0;targetShapes=umlLifeline;portConstraint=eastwest;newEdgeStyle={&quot;curved&quot;:0,&quot;rounded&quot;:0};" vertex="1" parent="2v0B1rhACqtFcKGSNcDr-62">
          <mxGeometry x="90" y="50" width="10" height="100" as="geometry" />
        </mxCell>
        <mxCell id="2v0B1rhACqtFcKGSNcDr-64" value="BadRequestException" style="shape=umlLifeline;perimeter=lifelinePerimeter;whiteSpace=wrap;html=1;container=1;dropTarget=0;collapsible=0;recursiveResize=0;outlineConnect=0;portConstraint=eastwest;newEdgeStyle={&quot;curved&quot;:0,&quot;rounded&quot;:0};" vertex="1" parent="1">
          <mxGeometry x="2370" y="1940" width="190" height="700" as="geometry" />
        </mxCell>
        <mxCell id="2v0B1rhACqtFcKGSNcDr-65" value="" style="html=1;points=[[0,0,0,0,5],[0,1,0,0,-5],[1,0,0,0,5],[1,1,0,0,-5]];perimeter=orthogonalPerimeter;outlineConnect=0;targetShapes=umlLifeline;portConstraint=eastwest;newEdgeStyle={&quot;curved&quot;:0,&quot;rounded&quot;:0};" vertex="1" parent="2v0B1rhACqtFcKGSNcDr-64">
          <mxGeometry x="90" y="50" width="10" height="100" as="geometry" />
        </mxCell>
        <mxCell id="2v0B1rhACqtFcKGSNcDr-66" value="5.5.1: &amp;lt;&amp;lt;throw&amp;gt;&amp;gt;" style="html=1;verticalAlign=bottom;endArrow=block;curved=0;rounded=0;" edge="1" parent="1">
          <mxGeometry x="-0.9145" width="80" relative="1" as="geometry">
            <mxPoint x="1196" y="1960" as="sourcePoint" />
            <mxPoint x="2370" y="1960" as="targetPoint" />
            <mxPoint as="offset" />
          </mxGeometry>
        </mxCell>
        <mxCell id="2v0B1rhACqtFcKGSNcDr-67" value="5.5.2 http error: &quot;L&#39;operazione non può essere eseguita perché la proposta è già stata accettata o rifiutata&quot;" style="html=1;verticalAlign=bottom;endArrow=open;dashed=1;endSize=8;curved=0;rounded=0;entryX=1.4;entryY=0.619;entryDx=0;entryDy=0;entryPerimeter=0;" edge="1" parent="1">
          <mxGeometry x="-0.5397" y="-1" relative="1" as="geometry">
            <mxPoint x="2460" y="2021" as="sourcePoint" />
            <mxPoint x="1200" y="2020" as="targetPoint" />
            <mxPoint as="offset" />
          </mxGeometry>
        </mxCell>
        <mxCell id="2v0B1rhACqtFcKGSNcDr-68" value="5.5.3 http error: &quot;L&#39;operazione non può essere eseguita perché la proposta è già stata accettata o rifiutata&quot;" style="html=1;verticalAlign=bottom;endArrow=open;dashed=1;endSize=8;curved=0;rounded=0;" edge="1" parent="1">
          <mxGeometry x="0.25" y="-1" relative="1" as="geometry">
            <mxPoint x="1190" y="2070" as="sourcePoint" />
            <mxPoint x="710" y="2070.5" as="targetPoint" />
            <mxPoint as="offset" />
            <Array as="points">
              <mxPoint x="910" y="2071" />
            </Array>
          </mxGeometry>
        </mxCell>
        <mxCell id="2v0B1rhACqtFcKGSNcDr-69" value="5.5.4 http error: &quot;L&#39;operazione non può essere eseguita perché la proposta è già stata accettata o rifiutata&quot;" style="html=1;verticalAlign=bottom;endArrow=open;dashed=1;endSize=8;curved=0;rounded=0;" edge="1" parent="1">
          <mxGeometry x="-0.0552" y="1" relative="1" as="geometry">
            <mxPoint x="704" y="2100" as="sourcePoint" />
            <mxPoint x="124" y="2101" as="targetPoint" />
            <mxPoint as="offset" />
          </mxGeometry>
        </mxCell>
        <mxCell id="2v0B1rhACqtFcKGSNcDr-71" value="10: save(proposta)" style="html=1;verticalAlign=bottom;endArrow=block;curved=0;rounded=0;" edge="1" parent="1">
          <mxGeometry x="-0.7017" width="80" relative="1" as="geometry">
            <mxPoint x="1200" y="2470" as="sourcePoint" />
            <mxPoint x="1803.5000000000005" y="2470" as="targetPoint" />
            <mxPoint as="offset" />
          </mxGeometry>
        </mxCell>
        <mxCell id="2v0B1rhACqtFcKGSNcDr-72" value="Proposta" style="shape=umlLifeline;perimeter=lifelinePerimeter;whiteSpace=wrap;html=1;container=1;dropTarget=0;collapsible=0;recursiveResize=0;outlineConnect=0;portConstraint=eastwest;newEdgeStyle={&quot;curved&quot;:0,&quot;rounded&quot;:0};" vertex="1" parent="1">
          <mxGeometry x="2750" y="-10" width="100" height="2680" as="geometry" />
        </mxCell>
        <mxCell id="2v0B1rhACqtFcKGSNcDr-73" value="" style="html=1;points=[[0,0,0,0,5],[0,1,0,0,-5],[1,0,0,0,5],[1,1,0,0,-5]];perimeter=orthogonalPerimeter;outlineConnect=0;targetShapes=umlLifeline;portConstraint=eastwest;newEdgeStyle={&quot;curved&quot;:0,&quot;rounded&quot;:0};" vertex="1" parent="2v0B1rhACqtFcKGSNcDr-72">
          <mxGeometry x="45" y="60" width="10" height="2580" as="geometry" />
        </mxCell>
        <mxCell id="2v0B1rhACqtFcKGSNcDr-74" value="8: setControProposta(controproposta)" style="html=1;verticalAlign=bottom;endArrow=block;curved=0;rounded=0;" edge="1" parent="1" target="2v0B1rhACqtFcKGSNcDr-72">
          <mxGeometry x="-0.8757" width="80" relative="1" as="geometry">
            <mxPoint x="1190" y="2200" as="sourcePoint" />
            <mxPoint x="1270" y="2200" as="targetPoint" />
            <mxPoint as="offset" />
          </mxGeometry>
        </mxCell>
        <mxCell id="2v0B1rhACqtFcKGSNcDr-75" value="9: this.controProposta=controProposta" style="html=1;verticalAlign=bottom;endArrow=block;curved=0;rounded=0;" edge="1" parent="1">
          <mxGeometry x="-0.0204" y="75" width="80" relative="1" as="geometry">
            <mxPoint x="2805" y="2240" as="sourcePoint" />
            <mxPoint x="2800" y="2320" as="targetPoint" />
            <Array as="points">
              <mxPoint x="2885" y="2240" />
              <mxPoint x="2885" y="2320" />
            </Array>
            <mxPoint as="offset" />
          </mxGeometry>
        </mxCell>
        <mxCell id="2v0B1rhACqtFcKGSNcDr-76" value="return" style="html=1;verticalAlign=bottom;endArrow=open;dashed=1;endSize=8;curved=0;rounded=0;" edge="1" parent="1" target="2v0B1rhACqtFcKGSNcDr-5">
          <mxGeometry x="-0.95" relative="1" as="geometry">
            <mxPoint x="2790" y="2390" as="sourcePoint" />
            <mxPoint x="1800" y="2390" as="targetPoint" />
            <mxPoint as="offset" />
          </mxGeometry>
        </mxCell>
        <mxCell id="2v0B1rhACqtFcKGSNcDr-77" value="11: query update proposta" style="html=1;verticalAlign=bottom;endArrow=block;curved=0;rounded=0;" edge="1" parent="1">
          <mxGeometry x="-0.0204" y="-5" width="80" relative="1" as="geometry">
            <mxPoint x="1815" y="2520" as="sourcePoint" />
            <mxPoint x="1810" y="2600" as="targetPoint" />
            <Array as="points">
              <mxPoint x="1895" y="2520" />
              <mxPoint x="1895" y="2600" />
            </Array>
            <mxPoint as="offset" />
          </mxGeometry>
        </mxCell>
        <mxCell id="2v0B1rhACqtFcKGSNcDr-78" value="return" style="html=1;verticalAlign=bottom;endArrow=open;dashed=1;endSize=8;curved=0;rounded=0;" edge="1" parent="1" target="2v0B1rhACqtFcKGSNcDr-5">
          <mxGeometry x="-0.6062" relative="1" as="geometry">
            <mxPoint x="1800" y="2620" as="sourcePoint" />
            <mxPoint x="1720" y="2620" as="targetPoint" />
            <mxPoint as="offset" />
          </mxGeometry>
        </mxCell>
        <mxCell id="2v0B1rhACqtFcKGSNcDr-79" value="return" style="html=1;verticalAlign=bottom;endArrow=open;dashed=1;endSize=8;curved=0;rounded=0;" edge="1" parent="1" target="2v0B1rhACqtFcKGSNcDr-3">
          <mxGeometry x="-0.7502" relative="1" as="geometry">
            <mxPoint x="1190" y="2650" as="sourcePoint" />
            <mxPoint x="1110" y="2650" as="targetPoint" />
            <mxPoint as="offset" />
          </mxGeometry>
        </mxCell>
        <mxCell id="2v0B1rhACqtFcKGSNcDr-80" value="http response: ok" style="html=1;verticalAlign=bottom;endArrow=open;dashed=1;endSize=8;curved=0;rounded=0;" edge="1" parent="1">
          <mxGeometry x="-0.7966" y="-10" relative="1" as="geometry">
            <mxPoint x="710" y="2690" as="sourcePoint" />
            <mxPoint x="120" y="2690" as="targetPoint" />
            <mxPoint as="offset" />
          </mxGeometry>
        </mxCell>
      </root>
    </mxGraphModel>
  </diagram>
</mxfile>
